<svg width="30" height="28" viewBox="0 0 30 28" fill="none" xmlns="http://www.w3.org/2000/svg">
<path d="M0 12C0 5.37258 5.37258 0 12 0H29.2933V16C29.2933 22.6274 23.9207 28 17.2933 28H0V12Z" fill="#126BF1"/>
<path d="M12.2461 19H10.1338V13.2168L10.1543 12.2666L10.1885 11.2275C9.83757 11.5785 9.59375 11.8086 9.45703 11.918L8.30859 12.8408L7.29004 11.5693L10.5098 9.00586H12.2461V19ZM21.9531 14.0029C21.9531 15.7484 21.666 17.0404 21.0918 17.8789C20.5221 18.7174 19.6426 19.1367 18.4531 19.1367C17.3001 19.1367 16.4297 18.7038 15.8418 17.8379C15.2585 16.972 14.9668 15.6937 14.9668 14.0029C14.9668 12.2393 15.2516 10.9404 15.8213 10.1064C16.391 9.2679 17.2682 8.84863 18.4531 8.84863C19.6061 8.84863 20.4766 9.28613 21.0645 10.1611C21.6569 11.0361 21.9531 12.3167 21.9531 14.0029ZM17.0654 14.0029C17.0654 15.2288 17.1702 16.1084 17.3799 16.6416C17.5941 17.1702 17.9518 17.4346 18.4531 17.4346C18.9453 17.4346 19.3008 17.1657 19.5195 16.6279C19.7383 16.0902 19.8477 15.2152 19.8477 14.0029C19.8477 12.777 19.736 11.8975 19.5127 11.3643C19.2939 10.8265 18.9408 10.5576 18.4531 10.5576C17.9564 10.5576 17.6009 10.8265 17.3867 11.3643C17.1725 11.8975 17.0654 12.777 17.0654 14.0029Z" fill="white"/>
</svg>
