<svg width="28" height="28" viewBox="0 0 28 28" fill="none" xmlns="http://www.w3.org/2000/svg">
<path d="M0 12C0 5.37258 5.37258 0 12 0H28V16C28 22.6274 22.6274 28 16 28H0V12Z" fill="#126BF1"/>
<path d="M17.5479 19H10.5615V17.5303L13.0703 14.9941C13.8132 14.2331 14.2985 13.7067 14.5264 13.415C14.7542 13.1188 14.9183 12.8454 15.0186 12.5947C15.1188 12.3441 15.1689 12.0843 15.1689 11.8154C15.1689 11.4144 15.0573 11.1159 14.834 10.9199C14.6152 10.724 14.3213 10.626 13.9521 10.626C13.5648 10.626 13.1888 10.7148 12.8242 10.8926C12.4596 11.0703 12.0791 11.3232 11.6826 11.6514L10.5342 10.291C11.0264 9.87174 11.4342 9.57552 11.7578 9.40234C12.0814 9.22917 12.4346 9.09701 12.8174 9.00586C13.2002 8.91016 13.6286 8.8623 14.1025 8.8623C14.7269 8.8623 15.2783 8.97624 15.7568 9.2041C16.2354 9.43197 16.6068 9.75098 16.8711 10.1611C17.1354 10.5713 17.2676 11.0407 17.2676 11.5693C17.2676 12.0296 17.1855 12.4626 17.0215 12.8682C16.862 13.2692 16.6113 13.6816 16.2695 14.1055C15.9323 14.5293 15.3353 15.1331 14.4785 15.917L13.1934 17.127V17.2227H17.5479V19Z" fill="white"/>
</svg>
