<svg width="28" height="28" viewBox="0 0 28 28" fill="none" xmlns="http://www.w3.org/2000/svg">
<path d="M0 12C0 5.37258 5.37258 0 12 0H28V16C28 22.6274 22.6274 28 16 28H0V12Z" fill="#126BF1"/>
<path d="M17.1582 11.2412C17.1582 11.8656 16.9691 12.3965 16.5908 12.834C16.2126 13.2715 15.6816 13.5723 14.998 13.7363V13.7773C15.8047 13.8776 16.4154 14.1237 16.8301 14.5156C17.2448 14.903 17.4521 15.4271 17.4521 16.0879C17.4521 17.0495 17.1035 17.7992 16.4062 18.3369C15.709 18.8701 14.7132 19.1367 13.4189 19.1367C12.3343 19.1367 11.3727 18.9567 10.5342 18.5967V16.7988C10.9215 16.9948 11.3477 17.1543 11.8125 17.2773C12.2773 17.4004 12.7376 17.4619 13.1934 17.4619C13.8906 17.4619 14.4056 17.3434 14.7383 17.1064C15.071 16.8695 15.2373 16.4889 15.2373 15.9648C15.2373 15.4954 15.0459 15.1628 14.6631 14.9668C14.2803 14.7708 13.6696 14.6729 12.8311 14.6729H12.0723V13.0527H12.8447C13.6195 13.0527 14.1846 12.9525 14.54 12.752C14.9001 12.5469 15.0801 12.1982 15.0801 11.7061C15.0801 10.9495 14.6061 10.5713 13.6582 10.5713C13.3301 10.5713 12.9951 10.626 12.6533 10.7354C12.3161 10.8447 11.9401 11.0339 11.5254 11.3027L10.5479 9.84668C11.4593 9.19043 12.5462 8.8623 13.8086 8.8623C14.8431 8.8623 15.6589 9.07194 16.2559 9.49121C16.8574 9.91048 17.1582 10.4938 17.1582 11.2412Z" fill="white"/>
</svg>
