<svg width="28" height="28" viewBox="0 0 28 28" fill="none" xmlns="http://www.w3.org/2000/svg">
<path d="M0 12C0 5.37258 5.37258 0 12 0H28V16C28 22.6274 22.6274 28 16 28H0V12Z" fill="#126BF1"/>
<path d="M14.1982 12.6152C15.1644 12.6152 15.9323 12.8864 16.502 13.4287C17.0762 13.971 17.3633 14.7139 17.3633 15.6572C17.3633 16.7738 17.0192 17.6328 16.3311 18.2344C15.6429 18.8359 14.6585 19.1367 13.3779 19.1367C12.266 19.1367 11.3682 18.9567 10.6846 18.5967V16.7715C11.0446 16.9629 11.4639 17.1201 11.9424 17.2432C12.4209 17.3617 12.8743 17.4209 13.3027 17.4209C14.5924 17.4209 15.2373 16.8923 15.2373 15.835C15.2373 14.8278 14.5697 14.3242 13.2344 14.3242C12.9928 14.3242 12.7262 14.3493 12.4346 14.3994C12.1429 14.445 11.9059 14.4951 11.7236 14.5498L10.8828 14.0986L11.2588 9.00586H16.6797V10.7969H13.1113L12.9268 12.7588L13.166 12.7109C13.444 12.6471 13.7881 12.6152 14.1982 12.6152Z" fill="white"/>
</svg>
