<svg width="30" height="28" viewBox="0 0 30 28" fill="none" xmlns="http://www.w3.org/2000/svg">
<path d="M0 12C0 5.37258 5.37258 0 12 0H29.2933V16C29.2933 22.6274 23.9207 28 17.2933 28H0V12Z" fill="#126BF1"/>
<path d="M10.9541 14.7549C10.9541 12.777 11.3711 11.305 12.2051 10.3389C13.0436 9.37272 14.2969 8.88965 15.9648 8.88965C16.5345 8.88965 16.9811 8.92383 17.3047 8.99219V10.6807C16.8991 10.5895 16.498 10.5439 16.1016 10.5439C15.377 10.5439 14.7845 10.6533 14.3242 10.8721C13.8685 11.0908 13.5267 11.4144 13.2988 11.8428C13.071 12.2712 12.9365 12.8796 12.8955 13.668H12.9844C13.4355 12.8932 14.1579 12.5059 15.1514 12.5059C16.0446 12.5059 16.7441 12.7861 17.25 13.3467C17.7559 13.9072 18.0088 14.682 18.0088 15.6709C18.0088 16.7373 17.708 17.5827 17.1064 18.207C16.5049 18.8268 15.6709 19.1367 14.6045 19.1367C13.8662 19.1367 13.2214 18.9658 12.6699 18.624C12.123 18.2822 11.6992 17.7832 11.3984 17.127C11.1022 16.4707 10.9541 15.68 10.9541 14.7549ZM14.5635 17.4482C15.0146 17.4482 15.361 17.2979 15.6025 16.9971C15.8441 16.6917 15.9648 16.2588 15.9648 15.6982C15.9648 15.2106 15.8509 14.8278 15.623 14.5498C15.3997 14.2673 15.0602 14.126 14.6045 14.126C14.1761 14.126 13.8092 14.265 13.5039 14.543C13.2031 14.821 13.0527 15.1445 13.0527 15.5137C13.0527 16.056 13.194 16.514 13.4766 16.8877C13.7637 17.2614 14.126 17.4482 14.5635 17.4482Z" fill="white"/>
</svg>
