<svg width="30" height="28" viewBox="0 0 30 28" fill="none" xmlns="http://www.w3.org/2000/svg">
<path d="M0 12C0 5.37258 5.37258 0 12 0H29.2933V16C29.2933 22.6274 23.9207 28 17.2933 28H0V12Z" fill="#126BF1"/>
<path d="M14.4678 8.87598C15.4248 8.87598 16.195 9.09473 16.7783 9.53223C17.3662 9.96517 17.6602 10.5508 17.6602 11.2891C17.6602 11.7995 17.5189 12.2552 17.2363 12.6562C16.9538 13.0527 16.498 13.4082 15.8691 13.7227C16.6165 14.1237 17.152 14.543 17.4756 14.9805C17.8037 15.4134 17.9678 15.8896 17.9678 16.4092C17.9678 17.2295 17.6465 17.8903 17.0039 18.3916C16.3613 18.8883 15.516 19.1367 14.4678 19.1367C13.374 19.1367 12.515 18.9043 11.8906 18.4395C11.2663 17.9746 10.9541 17.3161 10.9541 16.4639C10.9541 15.8942 11.1045 15.3883 11.4053 14.9463C11.7106 14.5042 12.1982 14.1146 12.8682 13.7773C12.2985 13.4173 11.8883 13.0322 11.6377 12.6221C11.387 12.2119 11.2617 11.763 11.2617 11.2754C11.2617 10.5599 11.5579 9.98112 12.1504 9.53906C12.7428 9.09701 13.5153 8.87598 14.4678 8.87598ZM12.9092 16.3408C12.9092 16.7327 13.0459 17.0381 13.3193 17.2568C13.5928 17.4756 13.9665 17.585 14.4404 17.585C14.9645 17.585 15.3564 17.4733 15.6162 17.25C15.876 17.0221 16.0059 16.7236 16.0059 16.3545C16.0059 16.0492 15.876 15.7643 15.6162 15.5C15.361 15.2311 14.944 14.9463 14.3652 14.6455C13.3945 15.0921 12.9092 15.6572 12.9092 16.3408ZM14.4541 10.4209C14.0941 10.4209 13.8024 10.5143 13.5791 10.7012C13.3604 10.8835 13.251 11.1296 13.251 11.4395C13.251 11.7129 13.3376 11.959 13.5107 12.1777C13.6885 12.3919 14.0075 12.613 14.4678 12.8408C14.9144 12.6312 15.2266 12.417 15.4043 12.1982C15.582 11.9795 15.6709 11.7266 15.6709 11.4395C15.6709 11.125 15.557 10.8766 15.3291 10.6943C15.1012 10.512 14.8096 10.4209 14.4541 10.4209Z" fill="white"/>
</svg>
