<svg width="30" height="28" viewBox="0 0 30 28" fill="none" xmlns="http://www.w3.org/2000/svg">
<path d="M0 12C0 5.37258 5.37258 0 12 0H29.2933V16C29.2933 22.6274 23.9207 28 17.2933 28H0V12Z" fill="#126BF1"/>
<path d="M17.9678 13.2715C17.9678 15.2402 17.5531 16.71 16.7236 17.6807C15.8942 18.6514 14.6387 19.1367 12.957 19.1367C12.3646 19.1367 11.9157 19.1048 11.6104 19.041V17.3457C11.9932 17.4414 12.3942 17.4893 12.8135 17.4893C13.5199 17.4893 14.1009 17.3867 14.5566 17.1816C15.0124 16.972 15.361 16.6462 15.6025 16.2041C15.8441 15.7575 15.9831 15.1445 16.0195 14.3652H15.9375C15.6732 14.7936 15.3678 15.0944 15.0215 15.2676C14.6751 15.4408 14.2422 15.5273 13.7227 15.5273C12.8522 15.5273 12.1663 15.2493 11.665 14.6934C11.1637 14.1328 10.9131 13.3558 10.9131 12.3623C10.9131 11.2913 11.2161 10.446 11.8223 9.82617C12.4329 9.20182 13.2624 8.88965 14.3105 8.88965C15.0488 8.88965 15.6937 9.06283 16.2451 9.40918C16.8011 9.75553 17.2272 10.2591 17.5234 10.9199C17.8197 11.5762 17.9678 12.36 17.9678 13.2715ZM14.3516 10.585C13.9141 10.585 13.5723 10.7354 13.3262 11.0361C13.0801 11.3369 12.957 11.7699 12.957 12.335C12.957 12.818 13.0687 13.2008 13.292 13.4834C13.5153 13.766 13.8548 13.9072 14.3105 13.9072C14.7389 13.9072 15.1058 13.7682 15.4111 13.4902C15.7165 13.2077 15.8691 12.8841 15.8691 12.5195C15.8691 11.9772 15.7256 11.5192 15.4385 11.1455C15.1559 10.7718 14.7936 10.585 14.3516 10.585Z" fill="white"/>
</svg>
