<svg width="131" height="131" viewBox="0 0 131 131" fill="none" xmlns="http://www.w3.org/2000/svg">
<g clip-path="url(#clip0)">
<path d="M9.68196 69.7873C-2.94315 49.2777 3.44578 22.4137 23.9551 9.78556C44.4644 -2.84263 71.3284 3.54605 83.9568 24.0556C88.3022 31.1111 90.5451 39.2601 90.4266 47.546C89.6478 71.6595 69.7553 90.7359 45.6324 90.5023H5.38344L9.61979 83.3067C12.1429 79.1573 12.1649 73.9582 9.68196 69.7873Z" fill="white"/>
<path d="M121.325 107.167C133.944 86.652 127.543 59.7911 107.027 47.1721C101.835 43.9792 96.0315 41.9077 89.9882 41.0979C90.2934 43.2349 90.4367 45.3872 90.4242 47.5459C89.6453 71.6594 69.7529 90.7359 45.63 90.5022H41.082C44.6393 112.164 63.4262 128.02 85.3778 127.882H125.624L121.388 120.687C118.868 116.537 118.843 111.339 121.325 107.167Z" fill="#D1EEFF"/>
<path d="M124.067 119.099C122.158 115.937 122.158 111.981 124.067 108.819C137.586 86.8393 130.73 58.0597 108.751 44.5406C103.891 41.55 98.5239 39.4755 92.9169 38.4195C91.1102 28.6258 86.2197 19.6639 78.9615 12.8451C69.3705 3.66828 56.3027 -0.94828 43.0763 0.167033C17.3494 2.18248 -1.87036 24.6699 0.145079 50.3968C0.727682 57.8511 3.09187 65.056 7.03858 71.4076C8.94809 74.5693 8.94809 78.5255 7.03858 81.6872L2.70858 88.9141C1.8302 90.3938 2.31916 92.3063 3.79882 93.1817C4.27857 93.4652 4.82689 93.6177 5.38748 93.6177H38.5314C43.422 115.488 62.8472 131.026 85.2568 130.998H125.628C127.347 130.998 128.743 129.602 128.743 127.883C128.743 127.325 128.593 126.774 128.307 126.294L124.067 119.099ZM10.8359 87.3879L12.3311 84.8648C15.4399 79.7219 15.4399 73.28 12.3311 68.1371C0.609217 49.0886 6.54962 24.1464 25.5949 12.4247C44.6401 0.703068 69.5854 6.64015 81.3073 25.6885C85.3382 32.2363 87.4189 39.7963 87.3099 47.4843C86.5653 69.9 68.0589 87.6215 45.6309 87.3879H10.8359ZM85.3786 124.768C66.3426 124.877 49.6617 112.046 44.8832 93.6179H45.6309C71.4545 93.8328 92.7301 73.3921 93.5399 47.5777C93.5399 46.6742 93.5399 45.771 93.5399 44.8676C115.314 49.9792 128.821 71.772 123.709 93.546C122.715 97.7762 121.049 101.816 118.771 105.517C115.663 110.66 115.663 117.102 118.771 122.245L120.267 124.768H85.3786V124.768Z" fill="#1AA8FF"/>
<path d="M50.2718 39.3845C50.2718 42.4997 47.3437 44.4931 39.8364 44.8048L39.525 45.1162L40.8957 54.7727H47.1257L47.7799 51.1282C54.1346 50.0067 59.2744 46.8918 59.2744 39.2599C59.2744 31.3478 53.4494 26.7998 44.8518 26.7998C39.2727 26.6658 33.9274 29.0302 30.2734 33.2479L35.7558 39.2599C38.033 36.7026 41.2725 35.2104 44.696 35.1482C48.2469 35.1482 50.2718 36.7056 50.2718 39.3845Z" fill="#1AA8FF"/>
<path d="M48.5902 59.4951H38.9336V69.0271H48.5902V59.4951Z" fill="#1AA8FF"/>
</g>
<defs>
<clipPath id="clip0">
<rect width="131" height="131" fill="white"/>
</clipPath>
</defs>
</svg>
