<svg width="30" height="30" viewBox="0 0 30 30" fill="none" xmlns="http://www.w3.org/2000/svg">
<path d="M14.1214 0H6.50391V1.75781C9.25049 1.75781 11.4847 4.05059 11.4847 6.79717C11.4847 6.89736 11.4558 6.99299 11.4497 7.09254C12.0475 7.08908 12.6445 7.18084 13.2288 7.3851C15.3402 8.12496 16.7581 10.1257 16.7581 12.3633V17.6367C16.7581 19.5756 18.3348 21.1523 20.2737 21.1523H23.7894V9.72656C23.7894 4.39564 19.4523 0 14.1214 0ZM16.7581 5.27344H15.0003V3.51562H16.7581V5.27344Z" fill="black"/>
<path d="M23.7891 24.668V22.9101H20.2734C17.3655 22.9101 15 20.5447 15 17.6367V12.3633C15 10.8715 14.055 9.53771 12.6474 9.04417C12.11 8.85597 11.5579 8.81578 11.0055 8.88685C10.6628 9.6246 10.1548 10.284 9.49137 10.7814L8.65025 11.4131C6.02232 13.3836 4.45312 16.5215 4.45312 19.8065C4.45312 22.5356 5.52352 25.224 7.52672 27.2266L10.2415 30H27.3047V28.1836C25.3658 28.1836 23.7891 26.6069 23.7891 24.668Z" fill="#226CFC"/>
<path d="M6.28389 28.4694C5.46369 27.6495 4.78119 26.7299 4.23264 25.7435C3.29707 26.5502 2.69531 27.7336 2.69531 29.0625V30H7.75588L6.28389 28.4694Z" fill="black"/>
</svg>
