<svg width="24" height="24" viewBox="0 0 24 24" fill="none" xmlns="http://www.w3.org/2000/svg">
<g clip-path="url(#clip0)">
<path d="M22.0032 5.99906C20.8985 5.99906 20.0029 6.89465 20.0029 7.99937C20.0033 8.20907 20.0371 8.41737 20.1029 8.61648L18.4806 9.64764C17.4125 10.3282 16.0043 10.1026 15.2022 9.12257L13.6119 7.1773C13.865 6.83661 14.0018 6.42353 14.002 5.99911C14.002 4.89439 13.1064 3.9988 12.0017 3.9988C10.8969 3.9988 10.0014 4.89439 10.0014 5.99911C10.0015 6.42353 10.1383 6.83661 10.3914 7.1773L8.80118 9.12257C7.99917 10.1021 6.59159 10.3276 5.52372 9.64764L3.90057 8.61648C3.96644 8.41737 4.0002 8.20907 4.00057 7.99937C4.00076 6.89465 3.10536 5.99892 2.00059 5.99874C0.895913 5.99855 0.000187561 6.89399 3.3278e-08 7.99872C-0.000187494 9.03574 0.79221 9.90095 1.82525 9.99166L3.00743 17.0827C3.04751 17.3238 3.25604 17.5006 3.50048 17.5007H20.503C20.7474 17.5006 20.956 17.3238 20.996 17.0827L22.1782 9.99166C23.2785 9.89298 24.0905 8.92098 23.9918 7.82066C23.8995 6.79071 23.0373 6.00099 22.0032 5.99906Z" fill="#FFC107"/>
<path d="M12.0012 19.5011C16.6963 19.5011 20.5025 18.3816 20.5025 17.0007C20.5025 15.6198 16.6963 14.5004 12.0012 14.5004C7.30613 14.5004 3.5 15.6198 3.5 17.0007C3.5 18.3816 7.30613 19.5011 12.0012 19.5011Z" fill="#FFA000"/>
<path d="M12.0013 20.0012C7.52766 20.0012 3 18.9711 3 17.0008C3 15.0305 7.52766 14.0003 12.0013 14.0003C16.475 14.0003 21.0026 15.0305 21.0026 17.0008C21.0026 18.9711 16.475 20.0012 12.0013 20.0012ZM12.0013 15.0005C6.74853 15.0005 4.00013 16.3007 4.00013 17.0008C4.00013 17.7009 6.74853 19.0011 12.0013 19.0011C17.2541 19.0011 20.0025 17.7009 20.0025 17.0008C20.0025 16.3007 17.2541 15.0005 12.0013 15.0005Z" fill="#FFD54F"/>
</g>
<defs>
<clipPath id="clip0">
<rect width="24" height="24" fill="white"/>
</clipPath>
</defs>
</svg>
