<svg width="27" height="32" viewBox="0 0 27 32" fill="none" xmlns="http://www.w3.org/2000/svg">
<path d="M12.1655 0H4.12891V1.85864C7.02662 1.85864 9.38373 4.28292 9.38373 7.18704C9.38373 7.29298 9.35325 7.39409 9.34682 7.49935C9.97755 7.49569 10.6074 7.59271 11.2238 7.80869C13.4514 8.59099 14.9473 10.7065 14.9473 13.0724V18.6483C14.9473 20.6985 16.6108 22.3656 18.6564 22.3656H22.3655V10.2845C22.3655 4.64777 17.7898 0 12.1655 0ZM14.9473 5.57591H13.0928V3.71727H14.9473V5.57591Z" fill="white"/>
<path d="M22.4449 26.2737V24.3859H18.7394C15.6744 24.3859 13.1811 21.8455 13.1811 18.7226V13.0592C13.1811 11.4572 12.185 10.0247 10.7014 9.49468C10.1349 9.29256 9.55304 9.24939 8.97084 9.32572C8.60955 10.118 8.07416 10.8261 7.37486 11.3603L6.48831 12.0387C3.71842 14.155 2.06445 17.5249 2.06445 21.0528C2.06445 23.9836 3.19267 26.8708 5.30408 29.0215L8.16557 32H26.1505V30.0493C24.1068 30.0493 22.4449 28.356 22.4449 26.2737Z" fill="white"/>
<path d="M3.904 30.2678C3.01171 29.3399 2.26922 28.2992 1.67245 27.1828C0.654651 28.0958 0 29.4351 0 30.939V32H5.50538L3.904 30.2678Z" fill="white"/>
</svg>
