<svg width="28" height="28" viewBox="0 0 28 28" fill="none" xmlns="http://www.w3.org/2000/svg">
<path d="M0 12C0 5.37258 5.37258 0 12 0H28V16C28 22.6274 22.6274 28 16 28H0V12Z" fill="#F87D38"/>
<path d="M11.7852 19H9.67285V13.2168L9.69336 12.2666L9.72754 11.2275C9.37663 11.5785 9.13281 11.8086 8.99609 11.918L7.84766 12.8408L6.8291 11.5693L10.0488 9.00586H11.7852V19ZM21.4922 14.0029C21.4922 15.7484 21.2051 17.0404 20.6309 17.8789C20.0612 18.7174 19.1816 19.1367 17.9922 19.1367C16.8392 19.1367 15.9688 18.7038 15.3809 17.8379C14.7975 16.972 14.5059 15.6937 14.5059 14.0029C14.5059 12.2393 14.7907 10.9404 15.3604 10.1064C15.93 9.2679 16.8073 8.84863 17.9922 8.84863C19.1452 8.84863 20.0156 9.28613 20.6035 10.1611C21.196 11.0361 21.4922 12.3167 21.4922 14.0029ZM16.6045 14.0029C16.6045 15.2288 16.7093 16.1084 16.9189 16.6416C17.1331 17.1702 17.4909 17.4346 17.9922 17.4346C18.4844 17.4346 18.8398 17.1657 19.0586 16.6279C19.2773 16.0902 19.3867 15.2152 19.3867 14.0029C19.3867 12.777 19.2751 11.8975 19.0518 11.3643C18.833 10.8265 18.4798 10.5576 17.9922 10.5576C17.4954 10.5576 17.14 10.8265 16.9258 11.3643C16.7116 11.8975 16.6045 12.777 16.6045 14.0029Z" fill="white"/>
</svg>
