<svg width="28" height="28" viewBox="0 0 28 28" fill="none" xmlns="http://www.w3.org/2000/svg">
<path d="M0 12C0 5.37258 5.37258 0 12 0H28V16C28 22.6274 22.6274 28 16 28H0V12Z" fill="#F87D38"/>
<path d="M10.4932 14.7549C10.4932 12.777 10.9102 11.305 11.7441 10.3389C12.5827 9.37272 13.8359 8.88965 15.5039 8.88965C16.0736 8.88965 16.5202 8.92383 16.8438 8.99219V10.6807C16.4382 10.5895 16.0371 10.5439 15.6406 10.5439C14.916 10.5439 14.3236 10.6533 13.8633 10.8721C13.4076 11.0908 13.0658 11.4144 12.8379 11.8428C12.61 12.2712 12.4756 12.8796 12.4346 13.668H12.5234C12.9746 12.8932 13.6969 12.5059 14.6904 12.5059C15.5837 12.5059 16.2832 12.7861 16.7891 13.3467C17.2949 13.9072 17.5479 14.682 17.5479 15.6709C17.5479 16.7373 17.2471 17.5827 16.6455 18.207C16.0439 18.8268 15.21 19.1367 14.1436 19.1367C13.4053 19.1367 12.7604 18.9658 12.209 18.624C11.6621 18.2822 11.2383 17.7832 10.9375 17.127C10.6413 16.4707 10.4932 15.68 10.4932 14.7549ZM14.1025 17.4482C14.5537 17.4482 14.9001 17.2979 15.1416 16.9971C15.3831 16.6917 15.5039 16.2588 15.5039 15.6982C15.5039 15.2106 15.39 14.8278 15.1621 14.5498C14.9388 14.2673 14.5993 14.126 14.1436 14.126C13.7152 14.126 13.3483 14.265 13.043 14.543C12.7422 14.821 12.5918 15.1445 12.5918 15.5137C12.5918 16.056 12.7331 16.514 13.0156 16.8877C13.3027 17.2614 13.665 17.4482 14.1025 17.4482Z" fill="white"/>
</svg>
