<svg width="28" height="28" viewBox="0 0 28 28" fill="none" xmlns="http://www.w3.org/2000/svg">
<path d="M0 12C0 5.37258 5.37258 0 12 0H28V16C28 22.6274 22.6274 28 16 28H0V12Z" fill="#F87D38"/>
<path d="M14.0068 8.87598C14.9639 8.87598 15.734 9.09473 16.3174 9.53223C16.9053 9.96517 17.1992 10.5508 17.1992 11.2891C17.1992 11.7995 17.0579 12.2552 16.7754 12.6562C16.4928 13.0527 16.0371 13.4082 15.4082 13.7227C16.1556 14.1237 16.6911 14.543 17.0146 14.9805C17.3428 15.4134 17.5068 15.8896 17.5068 16.4092C17.5068 17.2295 17.1855 17.8903 16.543 18.3916C15.9004 18.8883 15.055 19.1367 14.0068 19.1367C12.9131 19.1367 12.054 18.9043 11.4297 18.4395C10.8053 17.9746 10.4932 17.3161 10.4932 16.4639C10.4932 15.8942 10.6436 15.3883 10.9443 14.9463C11.2497 14.5042 11.7373 14.1146 12.4072 13.7773C11.8376 13.4173 11.4274 13.0322 11.1768 12.6221C10.9261 12.2119 10.8008 11.763 10.8008 11.2754C10.8008 10.5599 11.097 9.98112 11.6895 9.53906C12.2819 9.09701 13.0544 8.87598 14.0068 8.87598ZM12.4482 16.3408C12.4482 16.7327 12.585 17.0381 12.8584 17.2568C13.1318 17.4756 13.5055 17.585 13.9795 17.585C14.5036 17.585 14.8955 17.4733 15.1553 17.25C15.415 17.0221 15.5449 16.7236 15.5449 16.3545C15.5449 16.0492 15.415 15.7643 15.1553 15.5C14.9001 15.2311 14.4831 14.9463 13.9043 14.6455C12.9336 15.0921 12.4482 15.6572 12.4482 16.3408ZM13.9932 10.4209C13.6331 10.4209 13.3415 10.5143 13.1182 10.7012C12.8994 10.8835 12.79 11.1296 12.79 11.4395C12.79 11.7129 12.8766 11.959 13.0498 12.1777C13.2275 12.3919 13.5465 12.613 14.0068 12.8408C14.4535 12.6312 14.7656 12.417 14.9434 12.1982C15.1211 11.9795 15.21 11.7266 15.21 11.4395C15.21 11.125 15.096 10.8766 14.8682 10.6943C14.6403 10.512 14.3486 10.4209 13.9932 10.4209Z" fill="white"/>
</svg>
