<svg width="28" height="28" viewBox="0 0 28 28" fill="none" xmlns="http://www.w3.org/2000/svg">
<path d="M0 12C0 5.37258 5.37258 0 12 0H28V16C28 22.6274 22.6274 28 16 28H0V12Z" fill="#F87D38"/>
<path d="M17.5068 13.2715C17.5068 15.2402 17.0921 16.71 16.2627 17.6807C15.4333 18.6514 14.1777 19.1367 12.4961 19.1367C11.9036 19.1367 11.4548 19.1048 11.1494 19.041V17.3457C11.5322 17.4414 11.9333 17.4893 12.3525 17.4893C13.0589 17.4893 13.64 17.3867 14.0957 17.1816C14.5514 16.972 14.9001 16.6462 15.1416 16.2041C15.3831 15.7575 15.5221 15.1445 15.5586 14.3652H15.4766C15.2122 14.7936 14.9069 15.0944 14.5605 15.2676C14.2142 15.4408 13.7812 15.5273 13.2617 15.5273C12.3913 15.5273 11.7054 15.2493 11.2041 14.6934C10.7028 14.1328 10.4521 13.3558 10.4521 12.3623C10.4521 11.2913 10.7552 10.446 11.3613 9.82617C11.972 9.20182 12.8014 8.88965 13.8496 8.88965C14.5879 8.88965 15.2327 9.06283 15.7842 9.40918C16.3402 9.75553 16.7663 10.2591 17.0625 10.9199C17.3587 11.5762 17.5068 12.36 17.5068 13.2715ZM13.8906 10.585C13.4531 10.585 13.1113 10.7354 12.8652 11.0361C12.6191 11.3369 12.4961 11.7699 12.4961 12.335C12.4961 12.818 12.6077 13.2008 12.8311 13.4834C13.0544 13.766 13.3939 13.9072 13.8496 13.9072C14.278 13.9072 14.6449 13.7682 14.9502 13.4902C15.2555 13.2077 15.4082 12.8841 15.4082 12.5195C15.4082 11.9772 15.2646 11.5192 14.9775 11.1455C14.695 10.7718 14.3327 10.585 13.8906 10.585Z" fill="white"/>
</svg>
